<svg xmlns="http://www.w3.org/2000/svg">
  <symbol id="diskette" stroke="currentColor" fill="currentColor">
    <path fill="#000" d="M0 0h1.615v1.615H0zm0 1.615h1.615V3.23H0zM0 3.23h1.615v1.615H0zm0 1.616h1.615v1.615H0zm0 1.616h1.615v1.615H0zm0 1.615h1.615v1.615H0zm0 1.615h1.615v1.615H0zm0 1.616h1.615v1.615H0zm0 1.615h1.615v1.615H0zm0 1.615h1.615v1.615H0zm0 1.616h1.615v1.615H0zm0 1.616h1.615v1.615H0zm0 1.615h1.615V21H0zM17.77 0v1.616h-1.616V0zm-1.616 0v1.615H14.54V0zm-1.616 0v1.615h-1.615V0zm-1.615 0v1.615h-1.615V0zm-1.615 0v1.615H9.693V0zM9.692 0v1.615H8.077V0zM8.077 0v1.615H6.462V0zM6.462 0v1.615H4.847V0zM4.846 0v1.615H3.23V0zM3.23 0v1.615H1.615V0zm16.155 1.615V3.23H17.77V1.615zM4.846 3.23v1.616H3.231V3.23zm0-1.614V3.23H3.23V1.616zm-.001 3.23v1.615H3.23V4.846zm11.31-1.616v1.615H14.54V3.23z"/>
    <path fill="#000" d="M16.155 1.615V3.23H14.54V1.615zm-.001 3.23V6.46h-1.615V4.845zM12.923 3.23v1.616h-1.615V3.23zm0-1.615V3.23h-1.615V1.615zm0 3.231V6.46h-1.615V4.846zm3.231 1.616v1.615H14.54V6.462zm-1.616 0v1.615h-1.615V6.462zm-1.615 0v1.615h-1.615V6.462zm-1.615 0v1.615H9.693V6.462zm-1.616 0v1.615H8.077V6.462zm-1.615 0v1.615H6.462V6.462zm-1.615 0v1.615H4.847V6.462zm-1.616 0v1.615H3.23V6.462zm12.924 4.846v1.615h-1.616v-1.615zm-1.616-.001v1.615h-1.615v-1.615zm-1.616 0v1.615h-1.615v-1.615zm-1.616.001v1.615h-1.614v-1.615zm-1.615 0v1.615H9.692v-1.615zm-1.615-.001v1.615H8.077v-1.615zm-1.615 0v1.615H6.462v-1.615zm-1.615.001v1.615H4.847v-1.615zm-1.617 0v1.615H3.23v-1.615zm12.925 1.615v1.615h-1.616v-1.615zm-12.924 0v1.615H3.23v-1.615zm12.924 1.616v1.615h-1.615v-1.615z"/>
    <path fill="#000" d="M4.846 14.538v1.615H3.23v-1.615zm12.924 1.617v1.615h-1.615v-1.615zm-12.924 0v1.615H3.231v-1.615zm-.001 1.615v1.615H3.23V17.77zm12.924 0v1.615h-1.615V17.77zm1.616 1.615V21H17.77v-1.615zm-1.615 0V21h-1.616v-1.615zm-1.616-.001V21H14.54v-1.615zm-1.616.001V21h-1.615v-1.615zm-1.615 0V21h-1.615v-1.615zm-1.616 0V21H9.692v-1.615zm-1.615-.001V21H8.077v-1.615zm-1.615.001V21H6.462v-1.615zm-1.615 0V21H4.847v-1.615zm-1.617 0V21H3.23v-1.615zm-1.615-.001V21H1.615v-1.615zM21 21h-1.615v-1.615H21zm0-1.615h-1.615V17.77H21zm0-1.616h-1.615v-1.615H21z"/>
    <path fill="#000" d="M21 16.155h-1.615V14.54H21zm0-1.617h-1.615v-1.615H21zm0-1.615h-1.615v-1.615H21zm0-1.616h-1.615V9.692H21z"/>
    <path fill="#000" d="M21 9.693h-1.615V8.078H21zm0-1.616h-1.615V6.462H21zm0-1.615h-1.615V4.847H21zm0-1.617h-1.615V3.23H21z"/>
  </symbol>
</svg>